# xmcd CD database file
#
# Track frame offsets:
#	150
#	13725
#	26265
#	33203
#	37505
#	47190
#	63065
#	79808
#	82008
#	92208
#	100775
#	124703
#	134535
#	139300
#	143818
#	147443
#	152320
#	156163
#	165058
#	171785
#
# Disc length: 2458 seconds
#
# Revision: 0
# Processed by: cddbd v1.5.1PL0 Copyright (c) Steve Scherf et al.
# Submitted via: CDex 1.51
#
DISCID=f4099814
DTITLE=Duke Ellington - Stanley Silverman - Timon of Athens
DYEAR=1995
DGENRE=Jazz
TTITLE0=Overture - Black and Tan Fantasy
TTITLE1=Timon's theme
TTITLE2=First banquet
TTITLE3=Toasts
TTITLE4=Dinner music - Bonding of friendship
TTITLE5=Dance - Skillipoop - The mooche
TTITLE6=Compulsing giving - Creole love call - Timon's theme
TTITLE7=Market crash
TTITLE8=False friends - Banquet theme
TTITLE9=Revolutionary march
TTITLE10=Creditors - Draggin' blues
TTITLE11=The senate - Second banquet
TTITLE12=Soured for the second banquet - Creole love call
TTITLE13=Entr'acte
TTITLE14=Gold
TTITLE15=Alcibiade's camp - Ring dem bells
TTITLE16=Revolutionary march
TTITLE17=Poet and painter
TTITLE18=Timon's theme
TTITLE19=Finale and Curtain - Revolutionary march - Timon's theme
EXTD=YEAR: 1995
EXTT0=
EXTT1=
EXTT2=
EXTT3=
EXTT4=
EXTT5=
EXTT6=
EXTT7=
EXTT8=
EXTT9=
EXTT10=
EXTT11=
EXTT12=
EXTT13=
EXTT14=
EXTT15=
EXTT16=
EXTT17=
EXTT18=
EXTT19=
PLAYORDER=
